<svg width="700" height="282" viewBox="0 0 301 282" fill="none" xmlns="http://www.w3.org/2000/svg">
<path d="M282.8 250.7C292.4 259.6 301.9 268 311.2 275.9C294.6 279 273.3 281.9 248.4 282.4C211.3 283.1 183 278.3 171.9 276.1C145.2 270.9 104 262.5 60 232.6C58.9 231.9 57.8 231.1 56.8 230.4C15.2 201.3 -12 155.6 -18.4 105.2C-19.5 96.1 -21.1 86.7 -23 76.8C-29.3 46 -38.3 20.2 -47 0H-46.8C-44.8 0.3 -42.6 0.6 -40.5 1C-11.4 5.7 26.8 13.7 70.3 28C120 44.4 171 61.1 225 101.7C256 125.1 288.7 150 308.8 195.7C321.4 224.5 324.5 251.1 325 268.8C291.5 231.6 260.2 205.3 237 187.8C214.7 171 200.5 160.4 178 150.8C147.5 137.7 142.1 143.7 116 129.8C90.2 116.1 85 104.8 59 94.8C43 88.7 28.9 86.8 19.7 86.1C27.4 91.7 38 100.8 46.5 114.8C53.9 126.9 56.4 137.3 57.7 141.5C68.1 177 111.4 203.2 121 209C159.1 232 199.1 233.8 226.1 231.2C246.7 229.2 267.2 236.3 282.4 250.4C282.6 250.5 282.7 250.6 282.8 250.7Z" fill="#573822"/>
</svg>